<svg width="74" height="74" viewBox="0 0 74 74" fill="none" xmlns="http://www.w3.org/2000/svg">
<g clip-path="url(#clip0_383_4397)">
<path d="M37.0001 74.0002C57.4347 74.0002 74.0002 57.4347 74.0002 37.0001C74.0002 16.5655 57.4347 0 37.0001 0C16.5655 0 0 16.5655 0 37.0001C0 57.4347 16.5655 74.0002 37.0001 74.0002Z" fill="#27BEBA"/>
<path d="M73.9999 36.9999C73.9999 57.35 57.3499 74 36.9998 74C25.2061 74 14.7998 68.6812 8.09351 60.125C14.3373 65.2125 22.431 68.2188 31.2185 68.2188C51.5686 68.2188 68.2186 51.5688 68.2186 31.2187C68.2186 22.4313 65.2123 14.3375 60.1248 8.09375C68.6811 14.7998 73.9999 25.206 73.9999 36.9999Z" fill="#13A6A2"/>
<path d="M57.1188 26.3617L33.0688 52.7243C31.45 54.5743 28.6751 54.5743 27.0563 52.7243L16.8813 41.393C15.4938 39.7742 15.4938 37.2305 17.1125 35.6117C18.7313 34.2242 21.275 34.2242 22.8938 35.8429L30.0626 43.9367L51.1063 21.0429C52.7251 19.4241 55.2688 19.1929 56.8876 20.8117C58.5063 22.1992 58.5063 24.9742 57.1188 26.3617Z" fill="white"/>
</g>
<defs>
<clipPath id="clip0_383_4397">
<rect width="74" height="74" fill="white"/>
</clipPath>
</defs>
</svg>
