<svg width="14" height="12" viewBox="0 0 14 12" fill="none" xmlns="http://www.w3.org/2000/svg">
<path d="M13.2981 11.2905C13.6881 10.9005 13.6881 10.2705 13.2981 9.88047L9.42812 6.00047L13.3081 2.12047C13.6981 1.73047 13.6981 1.10047 13.3081 0.710469C12.9181 0.320469 12.2881 0.320469 11.8981 0.710469L7.30812 5.30047C6.91813 5.69047 6.91813 6.32047 7.30812 6.71047L11.8981 11.3005C12.2781 11.6805 12.9081 11.6805 13.2981 11.2905Z" fill="white"/>
<path d="M6.70437 11.2905C7.09437 10.9005 7.09437 10.2705 6.70437 9.88047L2.83437 6.00047L6.71438 2.12047C7.10437 1.73047 7.10437 1.10047 6.71438 0.710469C6.32438 0.320469 5.69438 0.320469 5.30438 0.710469L0.714375 5.30047C0.324375 5.69047 0.324375 6.32047 0.714375 6.71047L5.30438 11.3005C5.68438 11.6805 6.31437 11.6805 6.70437 11.2905Z" fill="white"/>
</svg>
