<svg width="25" height="25" viewBox="0 0 25 25" fill="none" xmlns="http://www.w3.org/2000/svg">
<path d="M12.5125 0C19.4125 0 25 5.6 25 12.5C25 19.4 19.4125 25 12.5125 25C5.6 25 0 19.4 0 12.5C0 5.6 5.6 0 12.5125 0ZM3.85 7.5H7.5375C7.9375 5.9375 8.5125 4.4375 9.2625 3.05C6.9625 3.8375 5.05 5.4375 3.85 7.5ZM12.5 2.55C11.4625 4.05 10.65 5.7125 10.1125 7.5H14.8875C14.35 5.7125 13.5375 4.05 12.5 2.55ZM12.5 22.45C13.5375 20.95 14.35 19.2875 14.8875 17.5H10.1125C10.65 19.2875 11.4625 20.95 12.5 22.45ZM9.575 15H15.425C15.5375 14.175 15.625 13.35 15.625 12.5C15.625 11.65 15.5375 10.8125 15.425 10H9.575C9.4625 10.8125 9.375 11.65 9.375 12.5C9.375 13.35 9.4625 14.175 9.575 15ZM9.2625 21.95C8.5125 20.5625 7.9375 19.0625 7.5375 17.5H3.85C5.05 19.5625 6.9625 21.1625 9.2625 21.95ZM7.05 15C6.95 14.175 6.875 13.35 6.875 12.5C6.875 11.65 6.95 10.825 7.05 10H2.825C2.625 10.8 2.5 11.6375 2.5 12.5C2.5 13.3625 2.625 14.2 2.825 15H7.05Z" fill="white"/>
</svg>
