<svg width="26" height="26" viewBox="0 0 26 26" fill="none" xmlns="http://www.w3.org/2000/svg">
<path d="M19.7696 13.6453C19.0391 12.7923 18.7072 12.0531 18.7072 10.7972V10.3701C18.7072 8.73354 18.3305 7.67907 17.5116 6.62459C16.2494 4.98699 14.1245 4 12.0443 4H11.9559C9.91947 4 7.86119 4.94167 6.57712 6.5128C5.71345 7.58842 5.29305 8.68822 5.29305 10.3701V10.7972C5.29305 12.0531 4.98296 12.7923 4.23061 13.6453C3.67703 14.2738 3.50012 15.0815 3.50012 15.9557C3.50012 16.8309 3.78735 17.6598 4.36379 18.3336C5.11614 19.1413 6.17858 19.6569 7.26388 19.7466C8.83517 19.9258 10.4065 19.9933 12.0006 19.9933C13.5938 19.9933 15.1651 19.8805 16.7374 19.7466C17.8217 19.6569 18.8841 19.1413 19.6365 18.3336C20.2119 17.6598 20.5001 16.8309 20.5001 15.9557C20.5001 15.0815 20.3232 14.2738 19.7696 13.6453Z" fill="white"/>
<path opacity="0.4" d="M14.0088 21.2283C13.5088 21.1215 10.4627 21.1215 9.96275 21.2283C9.53539 21.327 9.07324 21.5566 9.07324 22.0602C9.09809 22.5406 9.37935 22.9646 9.76895 23.2335L9.76795 23.2345C10.2718 23.6273 10.8632 23.877 11.4824 23.9667C11.8123 24.012 12.1482 24.01 12.4901 23.9667C13.1083 23.877 13.6997 23.6273 14.2036 23.2345L14.2026 23.2335C14.5922 22.9646 14.8734 22.5406 14.8983 22.0602C14.8983 21.5566 14.4361 21.327 14.0088 21.2283Z" fill="white"/>
<circle cx="20" cy="6" r="4.75" fill="#FF3232" stroke="#078583" stroke-width="1.5"/>
</svg>
