<svg width="21" height="21" viewBox="0 0 21 21" fill="none" xmlns="http://www.w3.org/2000/svg">
<path d="M16.439 7.59669H4.77197C4.10893 7.59669 3.47305 7.86008 3.00421 8.32892C2.53536 8.79776 2.27197 9.43365 2.27197 10.0967V13.4297C2.27329 13.8714 2.44935 14.2946 2.76168 14.607C3.07402 14.9193 3.49726 15.0954 3.93897 15.0967H5.60497V16.7637C5.60656 17.2052 5.78272 17.6282 6.09503 17.9403C6.40734 18.2525 6.83044 18.4284 7.27197 18.4297H13.939C14.3807 18.4284 14.8039 18.2523 15.1163 17.94C15.4286 17.6276 15.6047 17.2044 15.606 16.7627V15.0967H17.272C17.7137 15.0954 18.1369 14.9193 18.4493 14.607C18.7616 14.2946 18.9377 13.8714 18.939 13.4297V10.0967C18.939 9.43365 18.6756 8.79776 18.2067 8.32892C17.7379 7.86008 17.102 7.59669 16.439 7.59669ZM13.106 16.7637H8.10597C7.88494 16.7632 7.67312 16.6751 7.51683 16.5188C7.36054 16.3625 7.2725 16.1507 7.27197 15.9297V12.5967H13.939V15.9297C13.9382 16.1505 13.85 16.3621 13.6938 16.5182C13.5375 16.6743 13.3258 16.7622 13.105 16.7627L13.106 16.7637ZM16.439 10.9297C16.2742 10.9297 16.1132 10.8808 15.9762 10.7893C15.8392 10.6978 15.7324 10.5677 15.6694 10.4155C15.6063 10.2633 15.5898 10.0958 15.622 9.93418C15.6541 9.77259 15.7335 9.62416 15.85 9.50767C15.9664 9.39117 16.1149 9.31184 16.2765 9.27969C16.438 9.24755 16.6055 9.26405 16.7577 9.3271C16.91 9.39014 17.0401 9.49691 17.1316 9.6339C17.2231 9.77088 17.272 9.93194 17.272 10.0967C17.2712 10.3174 17.1832 10.5288 17.0271 10.6848C16.8711 10.8409 16.6597 10.9289 16.439 10.9297ZM14.772 3.42969H6.43897C6.21829 3.43048 6.00687 3.51849 5.85083 3.67454C5.69478 3.83059 5.60676 4.04201 5.60597 4.26269V5.92969C5.60676 6.15037 5.69478 6.36179 5.85083 6.51783C6.00687 6.67388 6.21829 6.7619 6.43897 6.76269H14.772C14.9927 6.7619 15.2041 6.67388 15.3601 6.51783C15.5162 6.36179 15.6042 6.15037 15.605 5.92969V4.26269C15.6042 4.04201 15.5162 3.83059 15.3601 3.67454C15.2041 3.51849 14.9927 3.43048 14.772 3.42969Z" fill="white"/>
</svg>
