<svg width="24" height="24" viewBox="0 0 24 24" fill="none" xmlns="http://www.w3.org/2000/svg">
<path opacity="0.4" d="M16.6757 2H7.33346C3.92901 2 2.00012 3.92889 2.00012 7.33333V16.6667C2.00012 20.0711 3.92901 22 7.33346 22H16.6757C20.0801 22 22.0001 20.0711 22.0001 16.6667V7.33333C22.0001 3.92889 20.0801 2 16.6757 2Z" fill="white"/>
<path d="M7.36878 9.3689C6.91545 9.3689 6.54211 9.74223 6.54211 10.2045V17.0756C6.54211 17.5289 6.91545 17.9022 7.36878 17.9022C7.831 17.9022 8.20434 17.5289 8.20434 17.0756V10.2045C8.20434 9.74223 7.831 9.3689 7.36878 9.3689Z" fill="white"/>
<path d="M12.0355 6.08887C11.5822 6.08887 11.2089 6.4622 11.2089 6.92442V17.0755C11.2089 17.5289 11.5822 17.9022 12.0355 17.9022C12.4978 17.9022 12.8711 17.5289 12.8711 17.0755V6.92442C12.8711 6.4622 12.4978 6.08887 12.0355 6.08887Z" fill="white"/>
<path d="M16.64 12.9956C16.1778 12.9956 15.8044 13.3689 15.8044 13.8312V17.0756C15.8044 17.5289 16.1778 17.9023 16.6311 17.9023C17.0933 17.9023 17.4667 17.5289 17.4667 17.0756V13.8312C17.4667 13.3689 17.0933 12.9956 16.64 12.9956Z" fill="white"/>
</svg>
