<svg width="24" height="24" viewBox="0 0 24 24" fill="none" xmlns="http://www.w3.org/2000/svg">
<path opacity="0.4" d="M11.9913 18.6215L5.49957 21.864C5.00933 22.1302 4.3978 21.9525 4.12361 21.4643C4.04353 21.3108 4.00118 21.1402 4.00012 20.9668V13.7087C4.00012 14.4283 4.40586 14.8725 5.47311 15.37L11.9913 18.6215Z" fill="white"/>
<path fill-rule="evenodd" clip-rule="evenodd" d="M8.89538 2H15.0696C17.7774 2 19.9737 3.06605 20.0001 5.79337V20.9668C19.999 21.1374 19.9567 21.3051 19.8766 21.4554C19.7481 21.7007 19.5261 21.8827 19.2616 21.9598C18.9971 22.0368 18.7129 22.0023 18.4742 21.8641L11.9913 18.6215L5.47311 15.3701C4.40586 14.8726 4.00012 14.4284 4.00012 13.7088V5.79337C4.00012 3.06605 6.19637 2 8.89538 2ZM8.22504 9.62227H15.7487C16.1823 9.62227 16.5337 9.26828 16.5337 8.83162C16.5337 8.39495 16.1823 8.04096 15.7487 8.04096H8.22504C7.79149 8.04096 7.44003 8.39495 7.44003 8.83162C7.44003 9.26828 7.79149 9.62227 8.22504 9.62227Z" fill="white"/>
</svg>
