<svg width="20" height="20" viewBox="0 0 20 20" fill="none" xmlns="http://www.w3.org/2000/svg">
<path d="M7.14385 18.7821V15.7152C7.14384 14.9381 7.77579 14.3067 8.55856 14.3018H11.4327C12.219 14.3018 12.8564 14.9346 12.8564 15.7152V18.7732C12.8564 19.4473 13.4041 19.9951 14.0831 20H16.0439C16.9598 20.0023 17.8389 19.6428 18.4873 19.0007C19.1357 18.3586 19.5001 17.4868 19.5001 16.5775V7.86585C19.5001 7.13139 19.1722 6.43471 18.6047 5.9635L11.9431 0.674268C10.7786 -0.250877 9.11549 -0.220992 7.98551 0.745384L1.46713 5.9635C0.872863 6.42082 0.517674 7.11956 0.500122 7.86585V16.5686C0.500122 18.4637 2.0475 20 3.9563 20H5.87241C6.19929 20.0023 6.51361 19.8751 6.74559 19.6464C6.97758 19.4178 7.10805 19.1067 7.10804 18.7821H7.14385Z" fill="white"/>
</svg>
